<mxfile host="app.diagrams.net" modified="2022-06-08T07:37:56.763Z" agent="5.0 (Macintosh; Intel Mac OS X 10_15_7) AppleWebKit/537.36 (KHTML, like Gecko) Chrome/102.0.0.0 Safari/537.36" etag="bF_RMpSaeSxyAE1oP7BE" version="19.0.2" type="github">
  <diagram id="EQ6uIwj5DGxhP8QlgAQL" name="Page-1">
    <mxGraphModel dx="1298" dy="777" grid="1" gridSize="10" guides="1" tooltips="1" connect="1" arrows="1" fold="1" page="1" pageScale="1" pageWidth="850" pageHeight="1100" math="0" shadow="0">
      <root>
        <mxCell id="0" />
        <mxCell id="1" parent="0" />
        <UserObject label="Handover" link="https://hevodata.atlassian.net/wiki/spaces/SE/pages/2480046150/Handover" id="mDHTO4kyp2VeH4VULjNu-1">
          <mxCell style="fontColor=#0000EE;fontStyle=4;rounded=1;overflow=hidden;spacing=10;" vertex="1" parent="1">
            <mxGeometry x="375" y="380" width="90" height="40" as="geometry" />
          </mxCell>
        </UserObject>
      </root>
    </mxGraphModel>
  </diagram>
</mxfile>
